<svg width="256" height="256" viewBox="0 0 256 256" fill="none" xmlns="http://www.w3.org/2000/svg">
  <rect x="18" y="18" width="220" height="220" rx="48" fill="#F8FBFF"/>
  <rect x="19.5" y="19.5" width="217" height="217" rx="46.5" stroke="url(#nh-border)" stroke-width="3"/>
  <path d="M70 180V76L151 180V76" stroke="#1A73E8" stroke-width="18" stroke-linecap="round" stroke-linejoin="round"/>
  <path d="M177 76V180" stroke="#34A853" stroke-width="18" stroke-linecap="round"/>
  <path d="M177 126H213" stroke="#FBBC05" stroke-width="18" stroke-linecap="round"/>
  <path d="M210 76V180" stroke="#EA4335" stroke-width="18" stroke-linecap="round"/>
  <path d="M50 57C82 30 132 27 168 47" stroke="#34A853" stroke-width="8" stroke-linecap="round"/>
  <path d="M204 71C226 104 225 151 201 184" stroke="#1A73E8" stroke-width="8" stroke-linecap="round"/>
  <path d="M184 207C145 230 92 225 57 194" stroke="#FBBC05" stroke-width="8" stroke-linecap="round"/>
  <circle cx="48" cy="58" r="10" fill="#EA4335"/>
  <circle cx="204" cy="184" r="10" fill="#34A853"/>
  <defs>
    <linearGradient id="nh-border" x1="28" y1="32" x2="226" y2="226" gradientUnits="userSpaceOnUse">
      <stop stop-color="#1A73E8"/>
      <stop offset=".34" stop-color="#34A853"/>
      <stop offset=".68" stop-color="#FBBC05"/>
      <stop offset="1" stop-color="#EA4335"/>
    </linearGradient>
  </defs>
</svg>
